<svg xmlns="http://www.w3.org/2000/svg" width="128" height="32" viewBox="0 0 128 32" shape-rendering="crispEdges">

<g transform="translate(0,0)">
<circle cx="16" cy="16" r="4" fill="#ffef5f" opacity="0.9"/>
<line x1="20.0" y1="16.0" x2="28.0" y2="16.0" stroke="#ffffff" stroke-width="2" opacity="0.8"/>
<line x1="18.83" y1="18.83" x2="24.49" y2="24.49" stroke="#ffffff" stroke-width="2" opacity="0.8"/>
<line x1="16.0" y1="20.0" x2="16.0" y2="28.0" stroke="#ffffff" stroke-width="2" opacity="0.8"/>
<line x1="13.17" y1="18.83" x2="7.51" y2="24.49" stroke="#ffffff" stroke-width="2" opacity="0.8"/>
<line x1="12.0" y1="16.0" x2="4.0" y2="16.0" stroke="#ffffff" stroke-width="2" opacity="0.8"/>
<line x1="13.17" y1="13.17" x2="7.51" y2="7.51" stroke="#ffffff" stroke-width="2" opacity="0.8"/>
<line x1="16.0" y1="12.0" x2="16.0" y2="4.0" stroke="#ffffff" stroke-width="2" opacity="0.8"/>
<line x1="18.83" y1="13.17" x2="24.49" y2="7.51" stroke="#ffffff" stroke-width="2" opacity="0.8"/>
</g>
<g transform="translate(32,0)">
<circle cx="16" cy="16" r="9" fill="#ffef5f" opacity="0.74"/>
<line x1="25.0" y1="16.0" x2="35.0" y2="16.0" stroke="#ffffff" stroke-width="2" opacity="0.68"/>
<line x1="22.36" y1="22.36" x2="29.44" y2="29.44" stroke="#ffffff" stroke-width="2" opacity="0.68"/>
<line x1="16.0" y1="25.0" x2="16.0" y2="35.0" stroke="#ffffff" stroke-width="2" opacity="0.68"/>
<line x1="9.64" y1="22.36" x2="2.56" y2="29.44" stroke="#ffffff" stroke-width="2" opacity="0.68"/>
<line x1="7.0" y1="16.0" x2="-3.0" y2="16.0" stroke="#ffffff" stroke-width="2" opacity="0.68"/>
<line x1="9.64" y1="9.64" x2="2.56" y2="2.56" stroke="#ffffff" stroke-width="2" opacity="0.68"/>
<line x1="16.0" y1="7.0" x2="16.0" y2="-3.0" stroke="#ffffff" stroke-width="2" opacity="0.68"/>
<line x1="22.36" y1="9.64" x2="29.44" y2="2.56" stroke="#ffffff" stroke-width="2" opacity="0.68"/>
</g>
<g transform="translate(64,0)">
<circle cx="16" cy="16" r="14" fill="#ffef5f" opacity="0.5800000000000001"/>
<line x1="30.0" y1="16.0" x2="42.0" y2="16.0" stroke="#ffffff" stroke-width="2" opacity="0.56"/>
<line x1="25.9" y1="25.9" x2="34.38" y2="34.38" stroke="#ffffff" stroke-width="2" opacity="0.56"/>
<line x1="16.0" y1="30.0" x2="16.0" y2="42.0" stroke="#ffffff" stroke-width="2" opacity="0.56"/>
<line x1="6.1" y1="25.9" x2="-2.38" y2="34.38" stroke="#ffffff" stroke-width="2" opacity="0.56"/>
<line x1="2.0" y1="16.0" x2="-10.0" y2="16.0" stroke="#ffffff" stroke-width="2" opacity="0.56"/>
<line x1="6.1" y1="6.1" x2="-2.38" y2="-2.38" stroke="#ffffff" stroke-width="2" opacity="0.56"/>
<line x1="16.0" y1="2.0" x2="16.0" y2="-10.0" stroke="#ffffff" stroke-width="2" opacity="0.56"/>
<line x1="25.9" y1="6.1" x2="34.38" y2="-2.38" stroke="#ffffff" stroke-width="2" opacity="0.56"/>
</g>
<g transform="translate(96,0)">
<circle cx="16" cy="16" r="19" fill="#ffef5f" opacity="0.42000000000000004"/>
<line x1="35.0" y1="16.0" x2="49.0" y2="16.0" stroke="#ffffff" stroke-width="2" opacity="0.44000000000000006"/>
<line x1="29.44" y1="29.44" x2="39.33" y2="39.33" stroke="#ffffff" stroke-width="2" opacity="0.44000000000000006"/>
<line x1="16.0" y1="35.0" x2="16.0" y2="49.0" stroke="#ffffff" stroke-width="2" opacity="0.44000000000000006"/>
<line x1="2.56" y1="29.44" x2="-7.33" y2="39.33" stroke="#ffffff" stroke-width="2" opacity="0.44000000000000006"/>
<line x1="-3.0" y1="16.0" x2="-17.0" y2="16.0" stroke="#ffffff" stroke-width="2" opacity="0.44000000000000006"/>
<line x1="2.56" y1="2.56" x2="-7.33" y2="-7.33" stroke="#ffffff" stroke-width="2" opacity="0.44000000000000006"/>
<line x1="16.0" y1="-3.0" x2="16.0" y2="-17.0" stroke="#ffffff" stroke-width="2" opacity="0.44000000000000006"/>
<line x1="29.44" y1="2.56" x2="39.33" y2="-7.33" stroke="#ffffff" stroke-width="2" opacity="0.44000000000000006"/>
</g>
</svg>