<svg xmlns="http://www.w3.org/2000/svg" width="600" height="800" viewBox="0 0 600 800" shape-rendering="crispEdges">

<rect x="0" y="0" width="600" height="20" fill="#23374f"/>
<rect x="0" y="0" width="20" height="800" fill="#23374f"/>
<rect x="580" y="0" width="20" height="800" fill="#23374f"/>
<rect x="4" y="4" width="592" height="5" fill="#6aa0c8"/>
<rect x="4" y="11" width="592" height="5" fill="#102238"/>
<rect x="4" y="22" width="5" height="774" fill="#6aa0c8"/>
<rect x="11" y="22" width="5" height="774" fill="#102238"/>
<rect x="584" y="22" width="5" height="774" fill="#6aa0c8"/>
<rect x="591" y="22" width="5" height="774" fill="#102238"/>
<rect x="40" y="6" width="8" height="8" fill="#c4d8f3"/>
<rect x="80" y="6" width="8" height="8" fill="#c4d8f3"/>
<rect x="120" y="6" width="8" height="8" fill="#c4d8f3"/>
<rect x="160" y="6" width="8" height="8" fill="#c4d8f3"/>
<rect x="200" y="6" width="8" height="8" fill="#c4d8f3"/>
<rect x="240" y="6" width="8" height="8" fill="#c4d8f3"/>
<rect x="280" y="6" width="8" height="8" fill="#c4d8f3"/>
<rect x="320" y="6" width="8" height="8" fill="#c4d8f3"/>
<rect x="360" y="6" width="8" height="8" fill="#c4d8f3"/>
<rect x="400" y="6" width="8" height="8" fill="#c4d8f3"/>
<rect x="440" y="6" width="8" height="8" fill="#c4d8f3"/>
<rect x="480" y="6" width="8" height="8" fill="#c4d8f3"/>
<rect x="520" y="6" width="8" height="8" fill="#c4d8f3"/>
<rect x="560" y="6" width="8" height="8" fill="#c4d8f3"/>
<rect x="6" y="40" width="8" height="8" fill="#c4d8f3"/>
<rect x="586" y="40" width="8" height="8" fill="#c4d8f3"/>
<rect x="6" y="80" width="8" height="8" fill="#c4d8f3"/>
<rect x="586" y="80" width="8" height="8" fill="#c4d8f3"/>
<rect x="6" y="120" width="8" height="8" fill="#c4d8f3"/>
<rect x="586" y="120" width="8" height="8" fill="#c4d8f3"/>
<rect x="6" y="160" width="8" height="8" fill="#c4d8f3"/>
<rect x="586" y="160" width="8" height="8" fill="#c4d8f3"/>
<rect x="6" y="200" width="8" height="8" fill="#c4d8f3"/>
<rect x="586" y="200" width="8" height="8" fill="#c4d8f3"/>
<rect x="6" y="240" width="8" height="8" fill="#c4d8f3"/>
<rect x="586" y="240" width="8" height="8" fill="#c4d8f3"/>
<rect x="6" y="280" width="8" height="8" fill="#c4d8f3"/>
<rect x="586" y="280" width="8" height="8" fill="#c4d8f3"/>
<rect x="6" y="320" width="8" height="8" fill="#c4d8f3"/>
<rect x="586" y="320" width="8" height="8" fill="#c4d8f3"/>
<rect x="6" y="360" width="8" height="8" fill="#c4d8f3"/>
<rect x="586" y="360" width="8" height="8" fill="#c4d8f3"/>
<rect x="6" y="400" width="8" height="8" fill="#c4d8f3"/>
<rect x="586" y="400" width="8" height="8" fill="#c4d8f3"/>
<rect x="6" y="440" width="8" height="8" fill="#c4d8f3"/>
<rect x="586" y="440" width="8" height="8" fill="#c4d8f3"/>
<rect x="6" y="480" width="8" height="8" fill="#c4d8f3"/>
<rect x="586" y="480" width="8" height="8" fill="#c4d8f3"/>
<rect x="6" y="520" width="8" height="8" fill="#c4d8f3"/>
<rect x="586" y="520" width="8" height="8" fill="#c4d8f3"/>
<rect x="6" y="560" width="8" height="8" fill="#c4d8f3"/>
<rect x="586" y="560" width="8" height="8" fill="#c4d8f3"/>
<rect x="6" y="600" width="8" height="8" fill="#c4d8f3"/>
<rect x="586" y="600" width="8" height="8" fill="#c4d8f3"/>
<rect x="6" y="640" width="8" height="8" fill="#c4d8f3"/>
<rect x="586" y="640" width="8" height="8" fill="#c4d8f3"/>
<rect x="6" y="680" width="8" height="8" fill="#c4d8f3"/>
<rect x="586" y="680" width="8" height="8" fill="#c4d8f3"/>
<rect x="6" y="720" width="8" height="8" fill="#c4d8f3"/>
<rect x="586" y="720" width="8" height="8" fill="#c4d8f3"/>
<rect x="6" y="760" width="8" height="8" fill="#c4d8f3"/>
<rect x="586" y="760" width="8" height="8" fill="#c4d8f3"/>
</svg>
