<svg xmlns="http://www.w3.org/2000/svg" width="800" height="600" viewBox="0 0 800 600" shape-rendering="crispEdges">

<rect x="0" y="0" width="800" height="20" fill="#23374f"/>
<rect x="0" y="0" width="20" height="600" fill="#23374f"/>
<rect x="780" y="0" width="20" height="600" fill="#23374f"/>
<rect x="4" y="4" width="792" height="5" fill="#6aa0c8"/>
<rect x="4" y="11" width="792" height="5" fill="#102238"/>
<rect x="4" y="22" width="5" height="574" fill="#6aa0c8"/>
<rect x="11" y="22" width="5" height="574" fill="#102238"/>
<rect x="784" y="22" width="5" height="574" fill="#6aa0c8"/>
<rect x="791" y="22" width="5" height="574" fill="#102238"/>
<rect x="40" y="6" width="8" height="8" fill="#c4d8f3"/>
<rect x="80" y="6" width="8" height="8" fill="#c4d8f3"/>
<rect x="120" y="6" width="8" height="8" fill="#c4d8f3"/>
<rect x="160" y="6" width="8" height="8" fill="#c4d8f3"/>
<rect x="200" y="6" width="8" height="8" fill="#c4d8f3"/>
<rect x="240" y="6" width="8" height="8" fill="#c4d8f3"/>
<rect x="280" y="6" width="8" height="8" fill="#c4d8f3"/>
<rect x="320" y="6" width="8" height="8" fill="#c4d8f3"/>
<rect x="360" y="6" width="8" height="8" fill="#c4d8f3"/>
<rect x="400" y="6" width="8" height="8" fill="#c4d8f3"/>
<rect x="440" y="6" width="8" height="8" fill="#c4d8f3"/>
<rect x="480" y="6" width="8" height="8" fill="#c4d8f3"/>
<rect x="520" y="6" width="8" height="8" fill="#c4d8f3"/>
<rect x="560" y="6" width="8" height="8" fill="#c4d8f3"/>
<rect x="600" y="6" width="8" height="8" fill="#c4d8f3"/>
<rect x="640" y="6" width="8" height="8" fill="#c4d8f3"/>
<rect x="680" y="6" width="8" height="8" fill="#c4d8f3"/>
<rect x="720" y="6" width="8" height="8" fill="#c4d8f3"/>
<rect x="760" y="6" width="8" height="8" fill="#c4d8f3"/>
<rect x="6" y="40" width="8" height="8" fill="#c4d8f3"/>
<rect x="786" y="40" width="8" height="8" fill="#c4d8f3"/>
<rect x="6" y="80" width="8" height="8" fill="#c4d8f3"/>
<rect x="786" y="80" width="8" height="8" fill="#c4d8f3"/>
<rect x="6" y="120" width="8" height="8" fill="#c4d8f3"/>
<rect x="786" y="120" width="8" height="8" fill="#c4d8f3"/>
<rect x="6" y="160" width="8" height="8" fill="#c4d8f3"/>
<rect x="786" y="160" width="8" height="8" fill="#c4d8f3"/>
<rect x="6" y="200" width="8" height="8" fill="#c4d8f3"/>
<rect x="786" y="200" width="8" height="8" fill="#c4d8f3"/>
<rect x="6" y="240" width="8" height="8" fill="#c4d8f3"/>
<rect x="786" y="240" width="8" height="8" fill="#c4d8f3"/>
<rect x="6" y="280" width="8" height="8" fill="#c4d8f3"/>
<rect x="786" y="280" width="8" height="8" fill="#c4d8f3"/>
<rect x="6" y="320" width="8" height="8" fill="#c4d8f3"/>
<rect x="786" y="320" width="8" height="8" fill="#c4d8f3"/>
<rect x="6" y="360" width="8" height="8" fill="#c4d8f3"/>
<rect x="786" y="360" width="8" height="8" fill="#c4d8f3"/>
<rect x="6" y="400" width="8" height="8" fill="#c4d8f3"/>
<rect x="786" y="400" width="8" height="8" fill="#c4d8f3"/>
<rect x="6" y="440" width="8" height="8" fill="#c4d8f3"/>
<rect x="786" y="440" width="8" height="8" fill="#c4d8f3"/>
<rect x="6" y="480" width="8" height="8" fill="#c4d8f3"/>
<rect x="786" y="480" width="8" height="8" fill="#c4d8f3"/>
<rect x="6" y="520" width="8" height="8" fill="#c4d8f3"/>
<rect x="786" y="520" width="8" height="8" fill="#c4d8f3"/>
<rect x="6" y="560" width="8" height="8" fill="#c4d8f3"/>
<rect x="786" y="560" width="8" height="8" fill="#c4d8f3"/>
</svg>