<svg xmlns="http://www.w3.org/2000/svg" width="128" height="32" viewBox="0 0 128 32" shape-rendering="crispEdges">

<g transform="translate(0,0)">
<polygon points="7,8 17,3 27,8 17,13" fill="#d4fff1"/>
<polygon points="7,8 17,13 17,29 7,23" fill="#54e0a8"/>
<polygon points="17,13 27,8 27,23 17,29" fill="#16846c"/>
<polygon points="9,10 17,6 25,10 17,14" fill="#ffffff" opacity="0.55"/>
</g>
<g transform="translate(32,0)">
<polygon points="7,8 17,3 27,8 17,13" fill="#d4fff1"/>
<polygon points="7,8 17,13 17,29 7,23" fill="#7bffc5"/>
<polygon points="17,13 27,8 27,23 17,29" fill="#16846c"/>
<polygon points="9,10 17,6 25,10 17,14" fill="#ffffff" opacity="0.55"/>
</g>
<g transform="translate(64,0)">
<polygon points="7,8 17,3 27,8 17,13" fill="#d4fff1"/>
<polygon points="7,8 17,13 17,29 7,23" fill="#54e0a8"/>
<polygon points="17,13 27,8 27,23 17,29" fill="#16846c"/>
<polygon points="9,10 17,6 25,10 17,14" fill="#ffffff" opacity="0.55"/>
</g>
<g transform="translate(96,0)">
<polygon points="7,8 17,3 27,8 17,13" fill="#d4fff1"/>
<polygon points="7,8 17,13 17,29 7,23" fill="#35b987"/>
<polygon points="17,13 27,8 27,23 17,29" fill="#16846c"/>
<polygon points="9,10 17,6 25,10 17,14" fill="#ffffff" opacity="0.55"/>
</g>
</svg>