<svg xmlns="http://www.w3.org/2000/svg" width="600" height="800" viewBox="0 0 600 800" shape-rendering="crispEdges">

<rect x="0" y="0" width="600" height="800" fill="#08101d"/>
<rect x="24" y="24" width="552" height="752" fill="#111d31"/>
<rect x="40" y="40" width="520" height="720" fill="#07111f"/>
<rect x="72" y="96" width="456" height="3" fill="#243b5a"/>
<rect x="72" y="142" width="456" height="3" fill="#243b5a"/>
<rect x="72" y="188" width="456" height="3" fill="#243b5a"/>
<rect x="72" y="234" width="456" height="3" fill="#243b5a"/>
<rect x="72" y="280" width="456" height="3" fill="#243b5a"/>
<rect x="72" y="326" width="456" height="3" fill="#243b5a"/>
<rect x="72" y="372" width="456" height="3" fill="#243b5a"/>
<rect x="72" y="418" width="456" height="3" fill="#243b5a"/>
<rect x="72" y="464" width="456" height="3" fill="#243b5a"/>
<rect x="72" y="510" width="456" height="3" fill="#243b5a"/>
<rect x="72" y="556" width="456" height="3" fill="#243b5a"/>
<rect x="72" y="602" width="456" height="3" fill="#243b5a"/>
<rect x="72" y="648" width="456" height="3" fill="#243b5a"/>
<rect x="72" y="694" width="456" height="3" fill="#243b5a"/>
<text x="300" y="300" fill="#72d6ff" font-size="64" font-family="Impact, Consolas, monospace" font-weight="700" text-anchor="middle" dominant-baseline="middle">VAUS ESCAPES</text>
<text x="300" y="380" fill="#f7fbff" font-size="26" font-family="Impact, Consolas, monospace" font-weight="700" text-anchor="middle" dominant-baseline="middle">A DIMENSIONAL FORTRESS</text>
<rect x="110" y="470" width="380" height="18" fill="#72d6ff"/>
<rect x="150" y="505" width="300" height="12" fill="#ffffff"/>
<rect x="200" y="535" width="200" height="8" fill="#6aa0c8"/>
</svg>
