<svg xmlns="http://www.w3.org/2000/svg" width="800" height="600" viewBox="0 0 800 600" shape-rendering="crispEdges">

<rect x="0" y="0" width="800" height="600" fill="#08101d"/>
<rect x="24" y="24" width="752" height="552" fill="#111d31"/>
<rect x="40" y="40" width="720" height="520" fill="#07111f"/>
<rect x="72" y="72" width="656" height="3" fill="#243b5a"/>
<rect x="72" y="118" width="656" height="3" fill="#243b5a"/>
<rect x="72" y="164" width="656" height="3" fill="#243b5a"/>
<rect x="72" y="210" width="656" height="3" fill="#243b5a"/>
<rect x="72" y="256" width="656" height="3" fill="#243b5a"/>
<rect x="72" y="302" width="656" height="3" fill="#243b5a"/>
<rect x="72" y="348" width="656" height="3" fill="#243b5a"/>
<rect x="72" y="394" width="656" height="3" fill="#243b5a"/>
<rect x="72" y="440" width="656" height="3" fill="#243b5a"/>
<rect x="72" y="486" width="656" height="3" fill="#243b5a"/>
<rect x="72" y="532" width="656" height="3" fill="#243b5a"/>
<text x="400" y="170" fill="#ff5f70" font-size="82" font-family="Impact, Consolas, monospace" font-weight="700" text-anchor="middle" dominant-baseline="middle">ARKANOID</text>
<text x="400" y="252" fill="#f7fbff" font-size="30" font-family="Impact, Consolas, monospace" font-weight="700" text-anchor="middle" dominant-baseline="middle">PRESS START</text>
<rect x="210" y="330" width="380" height="18" fill="#ff5f70"/>
<rect x="250" y="360" width="300" height="12" fill="#ffffff"/>
<rect x="300" y="390" width="200" height="8" fill="#6aa0c8"/>
</svg>